<svg width="32" height="32" viewBox="0 0 32 32" fill="none" xmlns="http://www.w3.org/2000/svg">
  <!-- Левая изогнутая часть -->
  <path d="M4 10C4 6 6 4 10 4H14V14C14 18 12 20 8 20C4 20 2 18 2 14V10H4Z" fill="#D0BAFF"/>
  
  <!-- Правый квадрат -->
  <rect x="14" y="14" width="10" height="10" rx="2" fill="white"/>
  <rect x="14" y="14" width="10" height="10" rx="2" stroke="#D0BAFF" stroke-width="1"/>
  
  <!-- Декоративные плюсики -->
  <g opacity="0.6">
    <circle cx="20" cy="4" r="1" fill="#D0BAFF"/>
    <circle cx="24" cy="4" r="1" fill="#D0BAFF"/>
    <line x1="22" y1="2" x2="22" y2="6" stroke="#D0BAFF" stroke-width="0.8" stroke-linecap="round"/>
    <line x1="20" y1="4" x2="24" y2="4" stroke="#D0BAFF" stroke-width="0.8" stroke-linecap="round"/>
  </g>
  
  <g opacity="0.6">
    <circle cx="20" cy="20" r="1" fill="#D0BAFF"/>
    <circle cx="24" cy="24" r="1" fill="#D0BAFF"/>
    <line x1="22" y1="18" x2="22" y2="22" stroke="#D0BAFF" stroke-width="0.8" stroke-linecap="round"/>
    <line x1="20" y1="20" x2="24" y2="20" stroke="#D0BAFF" stroke-width="0.8" stroke-linecap="round"/>
  </g>
</svg>

