<svg width="139" height="44" viewBox="0 0 139 44" fill="none" xmlns="http://www.w3.org/2000/svg">
<path d="M28.759 28.1311V16.5902C28.759 15.7934 29.3996 15.1475 30.1898 15.1475H43.0669C43.8571 15.1475 44.4977 15.7934 44.4977 16.5902V26.6885C44.4977 27.4853 43.8571 28.1311 43.0669 28.1311H28.759Z" fill="url(#paint0_linear_1158_2079)"/>
<path d="M27.5671 0C28.2254 0 28.7616 0.53751 28.7344 1.19969C28.5948 4.59805 27.8631 7.94843 26.5698 11.0966C25.1246 14.6146 23.0062 17.8112 20.3357 20.5038C17.6652 23.1964 14.4948 25.3322 11.0056 26.7895C7.8838 28.0932 4.5615 28.8309 1.19159 28.9718C0.533885 28.9993 -2.87318e-08 28.4595 0 27.7967L4.22442e-07 18.0525C4.51174e-07 17.3898 0.534313 16.857 1.19091 16.8097C2.97823 16.681 4.73606 16.2631 6.39631 15.5697C8.42419 14.7228 10.2668 13.4814 11.8188 11.9165C13.3709 10.3516 14.6021 8.49382 15.4421 6.44918C16.13 4.77467 16.5445 3.0017 16.672 1.199C16.7188 0.537936 17.248 0 17.9063 0H27.5671Z" fill="url(#paint1_linear_1158_2079)"/>
<path d="M28.6844 42.5574C28.6844 43.3541 28.0438 44 27.2536 44H17.238C16.4478 44 15.8072 43.3541 15.8072 42.5574V40.6276C16.1223 38.0278 16.7859 35.4774 17.7841 33.0476C18.492 31.3244 19.3618 29.6786 20.3785 28.1311H28.6844V42.5574Z" fill="url(#paint2_linear_1158_2079)"/>
<path d="M102.45 10.9466V8.5335C102.45 8.36691 102.582 8.23186 102.744 8.23186H105.388C105.551 8.23186 105.682 8.36691 105.682 8.5335V10.645C105.682 10.8116 105.551 10.9466 105.388 10.9466H102.45Z" fill="url(#paint3_linear_1158_2079)"/>
<path d="M102.053 5.06465C102.272 5.06465 102.451 5.24392 102.437 5.46437C102.395 6.12381 102.248 6.77261 102 7.38484C101.704 8.12043 101.269 8.7888 100.72 9.3518C100.172 9.9148 99.5208 10.3614 98.8043 10.6661C98.2103 10.9187 97.5809 11.0696 96.9412 11.1139C96.7223 11.129 96.5442 10.9485 96.5442 10.7276V8.98836C96.5442 8.76744 96.7227 8.59079 96.9406 8.56478C97.2552 8.52723 97.5639 8.44507 97.8577 8.32013C98.2742 8.14305 98.6525 7.88349 98.9713 7.55629C99.29 7.22908 99.5428 6.84063 99.7153 6.41311C99.838 6.10907 99.9183 5.7895 99.9545 5.46382C99.9789 5.24428 100.154 5.06465 100.374 5.06465H102.053Z" fill="url(#paint4_linear_1158_2079)"/>
<path d="M102.435 13.963C102.435 14.1296 102.303 14.2646 102.141 14.2646H100.084C99.9219 14.2646 99.7903 14.1296 99.7903 13.963V13.5595C99.855 13.0159 99.9913 12.4826 100.196 11.9746C100.342 11.6143 100.52 11.2702 100.729 10.9466H102.435V13.963Z" fill="url(#paint5_linear_1158_2079)"/>
<path d="M81.7152 30.0277L81.6347 31.1616C81.5902 31.7896 81.0712 32.2761 80.4459 32.2761H58.6339C57.9756 32.2761 57.431 32.8232 57.6168 33.4589C57.9593 34.631 58.8049 35.8427 60.1538 37.0942C61.9439 38.7894 64.3455 39.637 67.3586 39.637C69.5742 39.637 71.3909 39.2177 72.8088 38.379C73.9507 37.6822 74.7548 37.0535 75.2211 36.4928C75.2438 36.4656 75.2635 36.4363 75.281 36.4055C75.3963 36.2024 75.6108 36.077 75.8432 36.077H80.077C80.5051 36.077 80.7967 36.5119 80.6252 36.9068C80.3947 37.3172 79.9605 37.9507 79.3224 38.8072C78.6312 39.7173 77.8247 40.5292 76.9031 41.243C76.0169 41.939 74.7141 42.5724 72.9949 43.1435C71.3643 43.7145 69.4855 44 67.3586 44C62.9453 44 59.365 42.733 56.6178 40.1991C53.8351 37.6652 52.4438 34.2747 52.4438 30.0277C52.4438 25.8164 53.8262 22.4349 56.5912 19.8831C59.3385 17.3313 62.839 16.0554 67.0928 16.0554C71.3111 16.0554 74.8116 17.3313 77.5943 19.8831C80.3416 22.4349 81.7152 25.8164 81.7152 30.0277ZM74.1647 22.9881C72.3923 21.2928 70.035 20.4452 67.0928 20.4452C64.1151 20.4452 61.7578 21.2928 60.0208 22.9881C58.6874 24.2763 57.8606 25.5491 57.5405 26.8065C57.377 27.4485 57.9224 27.9934 58.5807 27.9934H75.5782C76.2365 27.9934 76.7819 27.4486 76.6199 26.8062C76.303 25.549 75.4846 24.2762 74.1647 22.9881Z" fill="url(#paint6_linear_1158_2079)"/>
<path d="M87.2068 6.28105C87.2068 5.61831 87.7405 5.08105 88.3987 5.08105H90.6941C91.3524 5.08105 91.886 5.61831 91.886 6.28105V42.2647C91.886 42.9274 91.3524 43.4647 90.6941 43.4647H88.3987C87.7405 43.4647 87.2068 42.9274 87.2068 42.2647V6.28105Z" fill="url(#paint7_linear_1158_2079)"/>
<path d="M98.4411 18.8654C98.4411 18.2027 98.9747 17.4654 99.633 17.4654H101.928C102.587 17.4654 103.12 18.2027 103.12 18.8654V42.2647C103.12 42.9274 102.587 43.4647 101.928 43.4647H99.633C98.9747 43.4647 98.4411 42.9274 98.4411 42.2647V18.8654Z" fill="url(#paint8_linear_1158_2079)"/>
<path d="M108.585 35.9432C108.585 33.1951 109.746 31.1609 112.068 29.8404C114.372 28.5377 117.332 27.8864 120.948 27.8864C122.791 27.8864 124.493 28.1094 126.053 28.5555C127.683 29.0195 128.826 29.4567 129.482 29.8671C129.93 30.1564 130.519 29.8323 130.519 29.2963V26.3071C130.519 24.487 129.854 23.0594 128.525 22.0244C127.196 20.9716 125.193 20.4452 122.517 20.4452C117.957 20.4452 115.346 21.5138 114.683 23.6511C114.487 24.2837 113.98 24.835 113.322 24.835H111.034C110.373 24.835 109.828 24.2907 109.912 23.6305C110.212 21.2681 111.383 19.4657 113.424 18.2236C115.781 16.7782 118.812 16.0554 122.517 16.0554C126.239 16.0554 129.278 16.9298 131.636 18.6786C133.993 20.4452 135.18 22.9881 135.198 26.3071V36.077C135.198 37.4332 135.375 38.379 135.73 38.9143C136.084 39.4318 136.669 39.6905 137.485 39.6905C138.187 39.6905 138.655 39.5941 138.887 39.4014C138.892 39.3979 138.896 39.3949 138.901 39.3924C138.946 39.3695 139 39.4028 139 39.454V42.8407C139 43.2897 138.752 43.7126 138.32 43.8222C137.852 43.9407 137.281 44 136.607 44C134.835 44 133.523 43.6163 132.672 42.849C131.999 42.278 131.503 41.6802 131.184 41.0557L131.101 40.8564C131.071 40.7825 130.999 40.7344 130.92 40.7344C130.867 40.7344 130.817 40.7554 130.78 40.7923C130.356 41.213 129.923 41.5685 129.482 41.8587C128.933 42.2334 128.33 42.5635 127.674 42.849C125.937 43.6163 123.819 44 121.32 44C117.545 44 114.479 43.3487 112.121 42.046C109.764 40.7612 108.585 38.7269 108.585 35.9432ZM122.011 32.2761C116.251 32.2761 113.371 33.4985 113.371 35.9432C113.371 38.4057 116.251 39.637 122.011 39.637C123.713 39.637 125.264 39.4496 126.664 39.0749C128.046 38.7359 128.995 38.4147 129.509 38.1113C129.753 37.9835 129.961 37.8628 130.132 37.749C130.395 37.5732 130.519 37.2633 130.519 36.9451V34.861C130.519 34.5427 130.395 34.2329 130.132 34.0571C129.961 33.9433 129.753 33.8226 129.509 33.6948C128.906 33.4093 127.967 33.1059 126.691 32.7847C125.326 32.4457 123.766 32.2761 122.011 32.2761Z" fill="url(#paint9_linear_1158_2079)"/>
<defs>
<linearGradient id="paint0_linear_1158_2079" x1="0" y1="22" x2="139" y2="22" gradientUnits="userSpaceOnUse">
<stop stop-color="#D0BAFF"/>
<stop offset="1" stop-color="#A5EAED"/>
</linearGradient>
<linearGradient id="paint1_linear_1158_2079" x1="0" y1="22" x2="139" y2="22" gradientUnits="userSpaceOnUse">
<stop stop-color="#D0BAFF"/>
<stop offset="1" stop-color="#A5EAED"/>
</linearGradient>
<linearGradient id="paint2_linear_1158_2079" x1="0" y1="22" x2="139" y2="22" gradientUnits="userSpaceOnUse">
<stop stop-color="#D0BAFF"/>
<stop offset="1" stop-color="#A5EAED"/>
</linearGradient>
<linearGradient id="paint3_linear_1158_2079" x1="0" y1="22" x2="139" y2="22" gradientUnits="userSpaceOnUse">
<stop stop-color="#D0BAFF"/>
<stop offset="1" stop-color="#A5EAED"/>
</linearGradient>
<linearGradient id="paint4_linear_1158_2079" x1="0" y1="22" x2="139" y2="22" gradientUnits="userSpaceOnUse">
<stop stop-color="#D0BAFF"/>
<stop offset="1" stop-color="#A5EAED"/>
</linearGradient>
<linearGradient id="paint5_linear_1158_2079" x1="0" y1="22" x2="139" y2="22" gradientUnits="userSpaceOnUse">
<stop stop-color="#D0BAFF"/>
<stop offset="1" stop-color="#A5EAED"/>
</linearGradient>
<linearGradient id="paint6_linear_1158_2079" x1="0" y1="22" x2="139" y2="22" gradientUnits="userSpaceOnUse">
<stop stop-color="#D0BAFF"/>
<stop offset="1" stop-color="#A5EAED"/>
</linearGradient>
<linearGradient id="paint7_linear_1158_2079" x1="0" y1="22" x2="139" y2="22" gradientUnits="userSpaceOnUse">
<stop stop-color="#D0BAFF"/>
<stop offset="1" stop-color="#A5EAED"/>
</linearGradient>
<linearGradient id="paint8_linear_1158_2079" x1="0" y1="22" x2="139" y2="22" gradientUnits="userSpaceOnUse">
<stop stop-color="#D0BAFF"/>
<stop offset="1" stop-color="#A5EAED"/>
</linearGradient>
<linearGradient id="paint9_linear_1158_2079" x1="0" y1="22" x2="139" y2="22" gradientUnits="userSpaceOnUse">
<stop stop-color="#D0BAFF"/>
<stop offset="1" stop-color="#A5EAED"/>
</linearGradient>
</defs>
</svg>
